<svg xmlns="http://www.w3.org/2000/svg" viewBox="0 0 32 32" fill="none">
  <rect width="32" height="32" rx="8" fill="#13131A"/>
  <path d="M16 6C10.477 6 6 10.477 6 16c0 1.89.525 3.656 1.437 5.16L6 26l5.04-1.387A9.933 9.933 0 0016 26c5.523 0 10-4.477 10-10S21.523 6 16 6z" fill="#25D366"/>
  <path d="M13 12.5c-.278 0-.722.097-1.1.5-.378.404-1.4 1.36-1.4 3.316 0 1.956 1.427 3.848 1.627 4.116.2.267 2.75 4.402 6.773 6 .8.305 1.427.39 1.927.315.5-.075 1.6-.638 1.827-1.276.227-.637.227-1.187.16-1.299-.068-.112-.25-.18-.528-.315-.278-.135-1.65-.812-1.905-.903-.256-.09-.44-.135-.628.135-.187.27-.725.903-.888 1.09-.162.187-.323.21-.6.075-.277-.135-1.17-.43-2.228-1.372-.823-.733-1.38-1.637-1.542-1.912-.162-.27-.017-.416.122-.55.125-.12.278-.315.416-.473.14-.157.187-.27.278-.45.092-.18.047-.337-.023-.472-.07-.135-.628-1.512-.86-2.07-.228-.54-.46-.465-.628-.465z" fill="white"/>
</svg>
